G04 #@! TF.GenerationSoftware,KiCad,Pcbnew,(6.0.10-0)*
G04 #@! TF.CreationDate,2022-12-27T17:00:43+09:00*
G04 #@! TF.ProjectId,MEZ68030,4d455a36-3830-4333-902e-6b696361645f,A*
G04 #@! TF.SameCoordinates,PX5f5e100PY8f0d180*
G04 #@! TF.FileFunction,Legend,Top*
G04 #@! TF.FilePolarity,Positive*
%FSLAX46Y46*%
G04 Gerber Fmt 4.6, Leading zero omitted, Abs format (unit mm)*
G04 Created by KiCad (PCBNEW (6.0.10-0)) date 2022-12-27 17:00:43*
%MOMM*%
%LPD*%
G01*
G04 APERTURE LIST*
%ADD10C,0.150000*%
%ADD11C,0.200000*%
%ADD12C,0.203200*%
%ADD13C,0.304800*%
%ADD14C,0.120000*%
%ADD15R,1.397000X1.397000*%
%ADD16C,1.397000*%
G04 APERTURE END LIST*
D10*
X46355000Y13335000D02*
X47625000Y13335000D01*
X41275000Y26035000D02*
X42545000Y26035000D01*
X38735000Y10160000D02*
X40005000Y10160000D01*
X36195000Y20955000D02*
X37465000Y20955000D01*
X66675000Y41275000D02*
X67945000Y41275000D01*
X61595000Y28575000D02*
X62865000Y28575000D01*
X64135000Y38735000D02*
X65405000Y38735000D01*
X61595000Y38735000D02*
X62865000Y38735000D01*
X41275000Y23495000D02*
X42545000Y23495000D01*
X41275000Y13335000D02*
X42545000Y13335000D01*
X61595000Y33655000D02*
X62865000Y33655000D01*
X46355000Y15875000D02*
X47625000Y15875000D01*
X66675000Y23495000D02*
X67945000Y23495000D01*
X36195000Y26035000D02*
X37465000Y26035000D01*
X59055000Y18415000D02*
X60325000Y18415000D01*
X59032798Y36221786D02*
X60302798Y36221786D01*
X66675000Y28575000D02*
X67945000Y28575000D01*
X41275000Y28575000D02*
X42545000Y28575000D01*
X43815000Y13335000D02*
X45085000Y13335000D01*
X46355000Y36195000D02*
X47625000Y36195000D01*
X41275000Y15875000D02*
X42545000Y15875000D01*
X38735000Y20955000D02*
X40005000Y20955000D01*
X61595000Y23495000D02*
X62865000Y23495000D01*
X61595000Y20955000D02*
X62865000Y20955000D01*
X38735000Y23495000D02*
X40005000Y23495000D01*
X36195000Y23495000D02*
X37465000Y23495000D01*
X59055000Y38735000D02*
X60325000Y38735000D01*
X36195000Y15875000D02*
X37465000Y15875000D01*
X38735000Y31115000D02*
X40005000Y31115000D01*
X48895000Y36195000D02*
X50165000Y36195000D01*
X66675000Y26035000D02*
X67945000Y26035000D01*
X36195000Y31115000D02*
X37465000Y31115000D01*
X36195000Y10160000D02*
X37465000Y10160000D01*
X66675000Y38735000D02*
X67945000Y38735000D01*
X41275000Y10160000D02*
X42545000Y10160000D01*
X38735000Y28575000D02*
X40005000Y28575000D01*
X53975000Y15875000D02*
X55245000Y15875000D01*
X36195000Y41275000D02*
X37465000Y41275000D01*
X59055000Y33655000D02*
X60325000Y33655000D01*
X61595000Y41275000D02*
X62865000Y41275000D01*
X36195000Y26035000D02*
X37465000Y26035000D01*
X61595000Y36221786D02*
X62865000Y36221786D01*
X64135000Y23495000D02*
X65405000Y23495000D01*
X48895000Y15875000D02*
X50165000Y15875000D01*
X64135000Y41275000D02*
X65405000Y41275000D01*
X61595000Y26035000D02*
X62865000Y26035000D01*
X41275000Y36195000D02*
X42545000Y36195000D01*
X38735000Y26035000D02*
X40005000Y26035000D01*
X64135000Y33655000D02*
X65405000Y33655000D01*
X51435000Y36195000D02*
X52705000Y36195000D01*
X43815000Y15875000D02*
X45085000Y15875000D01*
X56515000Y36195000D02*
X57785000Y36195000D01*
X66675000Y36221786D02*
X67945000Y36221786D01*
X66675000Y33655000D02*
X67945000Y33655000D01*
X43815000Y33655000D02*
X45085000Y33655000D01*
X43815000Y36195000D02*
X45085000Y36195000D01*
X64135000Y28575000D02*
X65405000Y28575000D01*
X51435000Y15875000D02*
X52705000Y15875000D01*
X36195000Y26035000D02*
X37465000Y26035000D01*
X38735000Y18415000D02*
X40005000Y18415000D01*
X64135000Y26035000D02*
X65405000Y26035000D01*
X41275000Y20955000D02*
X42545000Y20955000D01*
X38735000Y41275000D02*
X40005000Y41275000D01*
X43815000Y18415000D02*
X45085000Y18415000D01*
X64135000Y36221786D02*
X65405000Y36221786D01*
X36195000Y28575000D02*
X37465000Y28575000D01*
X41275000Y31115000D02*
X42545000Y31115000D01*
X56515000Y15875000D02*
X57785000Y15875000D01*
X61595000Y31115000D02*
X62865000Y31115000D01*
X12065000Y57785000D02*
G75*
G03*
X15875000Y57785000I1905000J0D01*
G01*
X43815000Y10160000D02*
X45085000Y10160000D01*
X508095Y4897381D02*
X555714Y4945000D01*
X650952Y4992620D01*
X889047Y4992620D01*
X984285Y4945000D01*
X1031904Y4897381D01*
X1079523Y4802143D01*
X1079523Y4706905D01*
X1031904Y4564048D01*
X460476Y3992620D01*
X1079523Y3992620D01*
X1698571Y4992620D02*
X1793809Y4992620D01*
X1889047Y4945000D01*
X1936666Y4897381D01*
X1984285Y4802143D01*
X2031904Y4611667D01*
X2031904Y4373572D01*
X1984285Y4183096D01*
X1936666Y4087858D01*
X1889047Y4040239D01*
X1793809Y3992620D01*
X1698571Y3992620D01*
X1603333Y4040239D01*
X1555714Y4087858D01*
X1508095Y4183096D01*
X1460476Y4373572D01*
X1460476Y4611667D01*
X1508095Y4802143D01*
X1555714Y4897381D01*
X1603333Y4945000D01*
X1698571Y4992620D01*
X26384285Y52919286D02*
X26384285Y52252620D01*
X26146190Y53300239D02*
X25908095Y52585953D01*
X26527142Y52585953D01*
X27098571Y53252620D02*
X27193809Y53252620D01*
X27289047Y53205000D01*
X27336666Y53157381D01*
X27384285Y53062143D01*
X27431904Y52871667D01*
X27431904Y52633572D01*
X27384285Y52443096D01*
X27336666Y52347858D01*
X27289047Y52300239D01*
X27193809Y52252620D01*
X27098571Y52252620D01*
X27003333Y52300239D01*
X26955714Y52347858D01*
X26908095Y52443096D01*
X26860476Y52633572D01*
X26860476Y52871667D01*
X26908095Y53062143D01*
X26955714Y53157381D01*
X27003333Y53205000D01*
X27098571Y53252620D01*
X25908095Y4897381D02*
X25955714Y4945000D01*
X26050952Y4992620D01*
X26289047Y4992620D01*
X26384285Y4945000D01*
X26431904Y4897381D01*
X26479523Y4802143D01*
X26479523Y4706905D01*
X26431904Y4564048D01*
X25860476Y3992620D01*
X26479523Y3992620D01*
X27431904Y3992620D02*
X26860476Y3992620D01*
X27146190Y3992620D02*
X27146190Y4992620D01*
X27050952Y4849762D01*
X26955714Y4754524D01*
X26860476Y4706905D01*
D11*
X47584964Y51527143D02*
X47734964Y52727143D01*
X48027821Y51870000D01*
X48534964Y52727143D01*
X48384964Y51527143D01*
X49034964Y52155715D02*
X49434964Y52155715D01*
X49527821Y51527143D02*
X48956392Y51527143D01*
X49106392Y52727143D01*
X49677821Y52727143D01*
X50077821Y52727143D02*
X50877821Y52727143D01*
X49927821Y51527143D01*
X50727821Y51527143D01*
X51849250Y52727143D02*
X51620678Y52727143D01*
X51499250Y52670000D01*
X51434964Y52612858D01*
X51299250Y52441429D01*
X51213535Y52212858D01*
X51156392Y51755715D01*
X51199250Y51641429D01*
X51249250Y51584286D01*
X51356392Y51527143D01*
X51584964Y51527143D01*
X51706392Y51584286D01*
X51770678Y51641429D01*
X51842107Y51755715D01*
X51877821Y52041429D01*
X51834964Y52155715D01*
X51784964Y52212858D01*
X51677821Y52270000D01*
X51449250Y52270000D01*
X51327821Y52212858D01*
X51263535Y52155715D01*
X51192107Y52041429D01*
X52584964Y52212858D02*
X52477821Y52270000D01*
X52427821Y52327143D01*
X52384964Y52441429D01*
X52392107Y52498572D01*
X52463535Y52612858D01*
X52527821Y52670000D01*
X52649250Y52727143D01*
X52877821Y52727143D01*
X52984964Y52670000D01*
X53034964Y52612858D01*
X53077821Y52498572D01*
X53070678Y52441429D01*
X52999250Y52327143D01*
X52934964Y52270000D01*
X52813535Y52212858D01*
X52584964Y52212858D01*
X52463535Y52155715D01*
X52399250Y52098572D01*
X52327821Y51984286D01*
X52299250Y51755715D01*
X52342107Y51641429D01*
X52392107Y51584286D01*
X52499250Y51527143D01*
X52727821Y51527143D01*
X52849250Y51584286D01*
X52913535Y51641429D01*
X52984964Y51755715D01*
X53013535Y51984286D01*
X52970678Y52098572D01*
X52920678Y52155715D01*
X52813535Y52212858D01*
X53849250Y52727143D02*
X53963535Y52727143D01*
X54070678Y52670000D01*
X54120678Y52612858D01*
X54163535Y52498572D01*
X54192107Y52270000D01*
X54156392Y51984286D01*
X54070678Y51755715D01*
X53999250Y51641429D01*
X53934964Y51584286D01*
X53813535Y51527143D01*
X53699250Y51527143D01*
X53592107Y51584286D01*
X53542107Y51641429D01*
X53499250Y51755715D01*
X53470678Y51984286D01*
X53506392Y52270000D01*
X53592107Y52498572D01*
X53663535Y52612858D01*
X53727821Y52670000D01*
X53849250Y52727143D01*
X54649250Y52727143D02*
X55392107Y52727143D01*
X54934964Y52270000D01*
X55106392Y52270000D01*
X55213535Y52212858D01*
X55263535Y52155715D01*
X55306392Y52041429D01*
X55270678Y51755715D01*
X55199250Y51641429D01*
X55134964Y51584286D01*
X55013535Y51527143D01*
X54670678Y51527143D01*
X54563535Y51584286D01*
X54513535Y51641429D01*
X56134964Y52727143D02*
X56249250Y52727143D01*
X56356392Y52670000D01*
X56406392Y52612858D01*
X56449250Y52498572D01*
X56477821Y52270000D01*
X56442107Y51984286D01*
X56356392Y51755715D01*
X56284964Y51641429D01*
X56220678Y51584286D01*
X56099250Y51527143D01*
X55984964Y51527143D01*
X55877821Y51584286D01*
X55827821Y51641429D01*
X55784964Y51755715D01*
X55756392Y51984286D01*
X55792107Y52270000D01*
X55877821Y52498572D01*
X55949250Y52612858D01*
X56013535Y52670000D01*
X56134964Y52727143D01*
D10*
X48855714Y27487620D02*
X48855714Y28487620D01*
X49189047Y27773334D01*
X49522380Y28487620D01*
X49522380Y27487620D01*
X50570000Y27582858D02*
X50522380Y27535239D01*
X50379523Y27487620D01*
X50284285Y27487620D01*
X50141428Y27535239D01*
X50046190Y27630477D01*
X49998571Y27725715D01*
X49950952Y27916191D01*
X49950952Y28059048D01*
X49998571Y28249524D01*
X50046190Y28344762D01*
X50141428Y28440000D01*
X50284285Y28487620D01*
X50379523Y28487620D01*
X50522380Y28440000D01*
X50570000Y28392381D01*
X51427142Y28487620D02*
X51236666Y28487620D01*
X51141428Y28440000D01*
X51093809Y28392381D01*
X50998571Y28249524D01*
X50950952Y28059048D01*
X50950952Y27678096D01*
X50998571Y27582858D01*
X51046190Y27535239D01*
X51141428Y27487620D01*
X51331904Y27487620D01*
X51427142Y27535239D01*
X51474761Y27582858D01*
X51522380Y27678096D01*
X51522380Y27916191D01*
X51474761Y28011429D01*
X51427142Y28059048D01*
X51331904Y28106667D01*
X51141428Y28106667D01*
X51046190Y28059048D01*
X50998571Y28011429D01*
X50950952Y27916191D01*
X52093809Y28059048D02*
X51998571Y28106667D01*
X51950952Y28154286D01*
X51903333Y28249524D01*
X51903333Y28297143D01*
X51950952Y28392381D01*
X51998571Y28440000D01*
X52093809Y28487620D01*
X52284285Y28487620D01*
X52379523Y28440000D01*
X52427142Y28392381D01*
X52474761Y28297143D01*
X52474761Y28249524D01*
X52427142Y28154286D01*
X52379523Y28106667D01*
X52284285Y28059048D01*
X52093809Y28059048D01*
X51998571Y28011429D01*
X51950952Y27963810D01*
X51903333Y27868572D01*
X51903333Y27678096D01*
X51950952Y27582858D01*
X51998571Y27535239D01*
X52093809Y27487620D01*
X52284285Y27487620D01*
X52379523Y27535239D01*
X52427142Y27582858D01*
X52474761Y27678096D01*
X52474761Y27868572D01*
X52427142Y27963810D01*
X52379523Y28011429D01*
X52284285Y28059048D01*
X53093809Y28487620D02*
X53189047Y28487620D01*
X53284285Y28440000D01*
X53331904Y28392381D01*
X53379523Y28297143D01*
X53427142Y28106667D01*
X53427142Y27868572D01*
X53379523Y27678096D01*
X53331904Y27582858D01*
X53284285Y27535239D01*
X53189047Y27487620D01*
X53093809Y27487620D01*
X52998571Y27535239D01*
X52950952Y27582858D01*
X52903333Y27678096D01*
X52855714Y27868572D01*
X52855714Y28106667D01*
X52903333Y28297143D01*
X52950952Y28392381D01*
X52998571Y28440000D01*
X53093809Y28487620D01*
X53760476Y28487620D02*
X54379523Y28487620D01*
X54046190Y28106667D01*
X54189047Y28106667D01*
X54284285Y28059048D01*
X54331904Y28011429D01*
X54379523Y27916191D01*
X54379523Y27678096D01*
X54331904Y27582858D01*
X54284285Y27535239D01*
X54189047Y27487620D01*
X53903333Y27487620D01*
X53808095Y27535239D01*
X53760476Y27582858D01*
X54998571Y28487620D02*
X55093809Y28487620D01*
X55189047Y28440000D01*
X55236666Y28392381D01*
X55284285Y28297143D01*
X55331904Y28106667D01*
X55331904Y27868572D01*
X55284285Y27678096D01*
X55236666Y27582858D01*
X55189047Y27535239D01*
X55093809Y27487620D01*
X54998571Y27487620D01*
X54903333Y27535239D01*
X54855714Y27582858D01*
X54808095Y27678096D01*
X54760476Y27868572D01*
X54760476Y28106667D01*
X54808095Y28297143D01*
X54855714Y28392381D01*
X54903333Y28440000D01*
X54998571Y28487620D01*
X2190714Y52252620D02*
X1619285Y52252620D01*
X1905000Y52252620D02*
X1905000Y53252620D01*
X1809761Y53109762D01*
X1714523Y53014524D01*
X1619285Y52966905D01*
X50314613Y50247620D02*
X50933660Y50247620D01*
X50552708Y49866667D01*
X50695565Y49866667D01*
X50784851Y49819048D01*
X50826517Y49771429D01*
X50862232Y49676191D01*
X50832470Y49438096D01*
X50772946Y49342858D01*
X50719375Y49295239D01*
X50618184Y49247620D01*
X50332470Y49247620D01*
X50243184Y49295239D01*
X50201517Y49342858D01*
X51302708Y50152381D02*
X51356279Y50200000D01*
X51457470Y50247620D01*
X51695565Y50247620D01*
X51784851Y50200000D01*
X51826517Y50152381D01*
X51862232Y50057143D01*
X51850327Y49961905D01*
X51784851Y49819048D01*
X51141994Y49247620D01*
X51761041Y49247620D01*
X52189613Y49247620D02*
X52314613Y50247620D01*
X52266994Y49866667D02*
X52368184Y49914286D01*
X52558660Y49914286D01*
X52647946Y49866667D01*
X52689613Y49819048D01*
X52725327Y49723810D01*
X52689613Y49438096D01*
X52630089Y49342858D01*
X52576517Y49295239D01*
X52475327Y49247620D01*
X52284851Y49247620D01*
X52195565Y49295239D01*
X53094375Y49247620D02*
X53177708Y49914286D01*
X53219375Y50247620D02*
X53165803Y50200000D01*
X53207470Y50152381D01*
X53261041Y50200000D01*
X53219375Y50247620D01*
X53207470Y50152381D01*
X53511041Y49914286D02*
X53891994Y49914286D01*
X53695565Y50247620D02*
X53588422Y49390477D01*
X53624136Y49295239D01*
X53713422Y49247620D01*
X53808660Y49247620D01*
X42975327Y47637620D02*
X43100327Y48637620D01*
X43481279Y48637620D01*
X43570565Y48590000D01*
X43612232Y48542381D01*
X43647946Y48447143D01*
X43630089Y48304286D01*
X43570565Y48209048D01*
X43516994Y48161429D01*
X43415803Y48113810D01*
X43034851Y48113810D01*
X44040803Y48161429D02*
X44374136Y48161429D01*
X44451517Y47637620D02*
X43975327Y47637620D01*
X44100327Y48637620D01*
X44576517Y48637620D01*
X45451517Y47637620D02*
X45177708Y48113810D01*
X44880089Y47637620D02*
X45005089Y48637620D01*
X45386041Y48637620D01*
X45475327Y48590000D01*
X45516994Y48542381D01*
X45552708Y48447143D01*
X45534851Y48304286D01*
X45475327Y48209048D01*
X45421755Y48161429D01*
X45320565Y48113810D01*
X44939613Y48113810D01*
X45838422Y47685239D02*
X45975327Y47637620D01*
X46213422Y47637620D01*
X46314613Y47685239D01*
X46368184Y47732858D01*
X46427708Y47828096D01*
X46439613Y47923334D01*
X46403898Y48018572D01*
X46362232Y48066191D01*
X46272946Y48113810D01*
X46088422Y48161429D01*
X45999136Y48209048D01*
X45957470Y48256667D01*
X45921755Y48351905D01*
X45933660Y48447143D01*
X45993184Y48542381D01*
X46046755Y48590000D01*
X46147946Y48637620D01*
X46386041Y48637620D01*
X46522946Y48590000D01*
X47147946Y48637620D02*
X47338422Y48637620D01*
X47427708Y48590000D01*
X47511041Y48494762D01*
X47534851Y48304286D01*
X47493184Y47970953D01*
X47421755Y47780477D01*
X47314613Y47685239D01*
X47213422Y47637620D01*
X47022946Y47637620D01*
X46933660Y47685239D01*
X46850327Y47780477D01*
X46826517Y47970953D01*
X46868184Y48304286D01*
X46939613Y48494762D01*
X47046755Y48590000D01*
X47147946Y48637620D01*
X47880089Y47637620D02*
X48005089Y48637620D01*
X48451517Y47637620D01*
X48576517Y48637620D01*
X48915803Y47923334D02*
X49391994Y47923334D01*
X48784851Y47637620D02*
X49243184Y48637620D01*
X49451517Y47637620D01*
X50261041Y47637620D02*
X49784851Y47637620D01*
X49909851Y48637620D01*
X51386041Y48637620D02*
X51499136Y47637620D01*
X51778898Y48351905D01*
X51880089Y47637620D01*
X52243184Y48637620D01*
X52814613Y48637620D02*
X53005089Y48637620D01*
X53094375Y48590000D01*
X53177708Y48494762D01*
X53201517Y48304286D01*
X53159851Y47970953D01*
X53088422Y47780477D01*
X52981279Y47685239D01*
X52880089Y47637620D01*
X52689613Y47637620D01*
X52600327Y47685239D01*
X52516994Y47780477D01*
X52493184Y47970953D01*
X52534851Y48304286D01*
X52606279Y48494762D01*
X52713422Y48590000D01*
X52814613Y48637620D01*
X54118184Y47637620D02*
X53844375Y48113810D01*
X53546755Y47637620D02*
X53671755Y48637620D01*
X54052708Y48637620D01*
X54141994Y48590000D01*
X54183660Y48542381D01*
X54219375Y48447143D01*
X54201517Y48304286D01*
X54141994Y48209048D01*
X54088422Y48161429D01*
X53987232Y48113810D01*
X53606279Y48113810D01*
X54546755Y47637620D02*
X54671755Y48637620D01*
X55118184Y47637620D02*
X54761041Y48209048D01*
X55243184Y48637620D02*
X54600327Y48066191D01*
X55505089Y47685239D02*
X55641994Y47637620D01*
X55880089Y47637620D01*
X55981279Y47685239D01*
X56034851Y47732858D01*
X56094375Y47828096D01*
X56106279Y47923334D01*
X56070565Y48018572D01*
X56028898Y48066191D01*
X55939613Y48113810D01*
X55755089Y48161429D01*
X55665803Y48209048D01*
X55624136Y48256667D01*
X55588422Y48351905D01*
X55600327Y48447143D01*
X55659851Y48542381D01*
X55713422Y48590000D01*
X55814613Y48637620D01*
X56052708Y48637620D01*
X56189613Y48590000D01*
X56481279Y48637620D02*
X57052708Y48637620D01*
X56641994Y47637620D02*
X56766994Y48637620D01*
X57249136Y47923334D02*
X57725327Y47923334D01*
X57118184Y47637620D02*
X57576517Y48637620D01*
X57784851Y47637620D01*
X58100327Y48637620D02*
X58671755Y48637620D01*
X58261041Y47637620D02*
X58386041Y48637620D01*
X58880089Y47637620D02*
X59005089Y48637620D01*
X59671755Y48637620D02*
X59862232Y48637620D01*
X59951517Y48590000D01*
X60034851Y48494762D01*
X60058660Y48304286D01*
X60016994Y47970953D01*
X59945565Y47780477D01*
X59838422Y47685239D01*
X59737232Y47637620D01*
X59546755Y47637620D01*
X59457470Y47685239D01*
X59374136Y47780477D01*
X59350327Y47970953D01*
X59391994Y48304286D01*
X59463422Y48494762D01*
X59570565Y48590000D01*
X59671755Y48637620D01*
X60403898Y47637620D02*
X60528898Y48637620D01*
X60975327Y47637620D01*
X61100327Y48637620D01*
D12*
X51308095Y25947620D02*
X51308095Y25138096D01*
X51355714Y25042858D01*
X51403333Y24995239D01*
X51498571Y24947620D01*
X51689047Y24947620D01*
X51784285Y24995239D01*
X51831904Y25042858D01*
X51879523Y25138096D01*
X51879523Y25947620D01*
X52879523Y24947620D02*
X52308095Y24947620D01*
X52593809Y24947620D02*
X52593809Y25947620D01*
X52498571Y25804762D01*
X52403333Y25709524D01*
X52308095Y25661905D01*
D13*
X35560000Y42545000D02*
X35560000Y43180000D01*
X35560000Y42545000D02*
X35560000Y10795000D01*
X35560000Y43180000D02*
X36195000Y43815000D01*
X68580000Y10795000D02*
X68580000Y43815000D01*
X36195000Y43815000D02*
X36830000Y43815000D01*
X68580000Y43815000D02*
X36830000Y43815000D01*
X35560000Y10795000D02*
X68580000Y10795000D01*
D14*
X30332380Y31695000D02*
X30332380Y38155000D01*
X29852380Y31743000D02*
X29852380Y33885000D01*
X28571380Y35965000D02*
X28571380Y37589000D01*
X29732380Y35965000D02*
X29732380Y38084000D01*
X28371380Y35965000D02*
X28371380Y37441000D01*
X27291380Y33985000D02*
X27291380Y35865000D01*
X30012380Y35965000D02*
X30012380Y38131000D01*
X29011380Y35965000D02*
X29011380Y37841000D01*
X29892380Y31736000D02*
X29892380Y33885000D01*
X28491380Y32318000D02*
X28491380Y33885000D01*
X28291380Y32475000D02*
X28291380Y33885000D01*
X30012380Y31719000D02*
X30012380Y33885000D01*
X29651380Y31784000D02*
X29651380Y33885000D01*
X28531380Y32289000D02*
X28531380Y33885000D01*
X29531380Y31815000D02*
X29531380Y33885000D01*
X27491380Y33493000D02*
X27491380Y36357000D01*
X27891380Y32881000D02*
X27891380Y36969000D01*
X28891380Y35965000D02*
X28891380Y37781000D01*
X29411380Y35965000D02*
X29411380Y37999000D01*
X29812380Y31750000D02*
X29812380Y33885000D01*
X27331380Y33866000D02*
X27331380Y35984000D01*
X28651380Y35965000D02*
X28651380Y37641000D01*
X30252380Y31698000D02*
X30252380Y38152000D01*
X29491380Y35965000D02*
X29491380Y38023000D01*
X29251380Y31907000D02*
X29251380Y33885000D01*
X28931380Y32049000D02*
X28931380Y33885000D01*
X28971380Y35965000D02*
X28971380Y37821000D01*
X30052380Y31714000D02*
X30052380Y33885000D01*
X29211380Y35965000D02*
X29211380Y37927000D01*
X28051380Y32701000D02*
X28051380Y37149000D01*
X28251380Y35965000D02*
X28251380Y37341000D01*
X29411380Y31851000D02*
X29411380Y33885000D01*
X30412380Y31695000D02*
X30412380Y38155000D01*
X30092380Y31710000D02*
X30092380Y33885000D01*
X29531380Y35965000D02*
X29531380Y38035000D01*
X27771380Y33035000D02*
X27771380Y36815000D01*
X28571380Y32261000D02*
X28571380Y33885000D01*
X27531380Y33416000D02*
X27531380Y36434000D01*
X29611380Y35965000D02*
X29611380Y38056000D01*
X27851380Y32930000D02*
X27851380Y36920000D01*
X27731380Y33091000D02*
X27731380Y36759000D01*
X29892380Y35965000D02*
X29892380Y38114000D01*
X29651380Y35965000D02*
X29651380Y38066000D01*
X33597621Y32771000D02*
X33597621Y33401000D01*
X30172380Y35965000D02*
X30172380Y38147000D01*
X29091380Y31973000D02*
X29091380Y33885000D01*
X29691380Y35965000D02*
X29691380Y38075000D01*
X28771380Y35965000D02*
X28771380Y37715000D01*
X28451380Y35965000D02*
X28451380Y37503000D01*
X29611380Y31794000D02*
X29611380Y33885000D01*
X30212380Y31701000D02*
X30212380Y38149000D01*
X27971380Y32788000D02*
X27971380Y37062000D01*
X29051380Y35965000D02*
X29051380Y37859000D01*
X29491380Y31827000D02*
X29491380Y33885000D01*
X29331380Y35965000D02*
X29331380Y37972000D01*
X27251380Y34123000D02*
X27251380Y35727000D01*
X27691380Y33149000D02*
X27691380Y36701000D01*
X28931380Y35965000D02*
X28931380Y37801000D01*
X28131380Y35965000D02*
X28131380Y37230000D01*
X29291380Y35965000D02*
X29291380Y37958000D01*
X29371380Y35965000D02*
X29371380Y37986000D01*
X29131380Y35965000D02*
X29131380Y37895000D01*
X28171380Y35965000D02*
X28171380Y37268000D01*
X28811380Y35965000D02*
X28811380Y37737000D01*
X28011380Y32743000D02*
X28011380Y37107000D01*
X28451380Y32347000D02*
X28451380Y33885000D01*
X28811380Y32113000D02*
X28811380Y33885000D01*
X28331380Y35965000D02*
X28331380Y37409000D01*
X28331380Y32441000D02*
X28331380Y33885000D01*
X28171380Y32582000D02*
X28171380Y33885000D01*
X28731380Y32159000D02*
X28731380Y33885000D01*
X30372380Y31695000D02*
X30372380Y38155000D01*
X29251380Y35965000D02*
X29251380Y37943000D01*
X30092380Y35965000D02*
X30092380Y38140000D01*
X28851380Y32091000D02*
X28851380Y33885000D01*
X29812380Y35965000D02*
X29812380Y38100000D01*
X28211380Y32545000D02*
X28211380Y33885000D01*
X29011380Y32009000D02*
X29011380Y33885000D01*
X28411380Y35965000D02*
X28411380Y37473000D01*
X29171380Y35965000D02*
X29171380Y37911000D01*
X27571380Y33344000D02*
X27571380Y36506000D01*
X28691380Y35965000D02*
X28691380Y37667000D01*
X28291380Y35965000D02*
X28291380Y37375000D01*
X29571380Y35965000D02*
X29571380Y38046000D01*
X29691380Y31775000D02*
X29691380Y33885000D01*
X29772380Y31758000D02*
X29772380Y33885000D01*
X29451380Y31839000D02*
X29451380Y33885000D01*
X29451380Y35965000D02*
X29451380Y38011000D01*
X29772380Y35965000D02*
X29772380Y38092000D01*
X29091380Y35965000D02*
X29091380Y37877000D01*
X27931380Y32833000D02*
X27931380Y37017000D01*
X29852380Y35965000D02*
X29852380Y38107000D01*
X27211380Y34292000D02*
X27211380Y35558000D01*
X28611380Y32235000D02*
X28611380Y33885000D01*
X28371380Y32409000D02*
X28371380Y33885000D01*
X28131380Y32620000D02*
X28131380Y33885000D01*
X29932380Y35965000D02*
X29932380Y38120000D01*
X27611380Y33275000D02*
X27611380Y36575000D01*
X33912621Y33086000D02*
X33282621Y33086000D01*
X29331380Y31878000D02*
X29331380Y33885000D01*
X28891380Y32069000D02*
X28891380Y33885000D01*
X28691380Y32183000D02*
X28691380Y33885000D01*
X30292380Y31697000D02*
X30292380Y38153000D01*
X28251380Y32509000D02*
X28251380Y33885000D01*
X30132380Y35965000D02*
X30132380Y38143000D01*
X29932380Y31730000D02*
X29932380Y33885000D01*
X28971380Y32029000D02*
X28971380Y33885000D01*
X28851380Y35965000D02*
X28851380Y37759000D01*
X28651380Y32209000D02*
X28651380Y33885000D01*
X30172380Y31703000D02*
X30172380Y33885000D01*
X27171380Y34523000D02*
X27171380Y35327000D01*
X27411380Y33663000D02*
X27411380Y36187000D01*
X29371380Y31864000D02*
X29371380Y33885000D01*
X29732380Y31766000D02*
X29732380Y33885000D01*
X29131380Y31955000D02*
X29131380Y33885000D01*
X27371380Y33760000D02*
X27371380Y36090000D01*
X28771380Y32135000D02*
X28771380Y33885000D01*
X28411380Y32377000D02*
X28411380Y33885000D01*
X29211380Y31923000D02*
X29211380Y33885000D01*
X29051380Y31991000D02*
X29051380Y33885000D01*
X27651380Y33211000D02*
X27651380Y36639000D01*
X28491380Y35965000D02*
X28491380Y37532000D01*
X27811380Y32981000D02*
X27811380Y36869000D01*
X28091380Y32660000D02*
X28091380Y37190000D01*
X29972380Y35965000D02*
X29972380Y38126000D01*
X29972380Y31724000D02*
X29972380Y33885000D01*
X30132380Y31707000D02*
X30132380Y33885000D01*
X28211380Y35965000D02*
X28211380Y37305000D01*
X30052380Y35965000D02*
X30052380Y38136000D01*
X28611380Y35965000D02*
X28611380Y37615000D01*
X28531380Y35965000D02*
X28531380Y37561000D01*
X28731380Y35965000D02*
X28731380Y37691000D01*
X29571380Y31804000D02*
X29571380Y33885000D01*
X29171380Y31939000D02*
X29171380Y33885000D01*
X29291380Y31892000D02*
X29291380Y33885000D01*
X27451380Y33575000D02*
X27451380Y36275000D01*
X33682380Y34925000D02*
G75*
G03*
X33682380Y34925000I-3270000J0D01*
G01*
X71905000Y26575000D02*
X71280000Y26575000D01*
X69065000Y30615000D02*
X69065000Y26575000D01*
X71905000Y30615000D02*
X71905000Y26575000D01*
X69690000Y26575000D02*
X69065000Y26575000D01*
X69690000Y30615000D02*
X69065000Y30615000D01*
X71905000Y30615000D02*
X71280000Y30615000D01*
X35075000Y26555000D02*
X34450000Y26555000D01*
X35075000Y30595000D02*
X35075000Y26555000D01*
X35075000Y30595000D02*
X34450000Y30595000D01*
X32860000Y26555000D02*
X32235000Y26555000D01*
X32860000Y30595000D02*
X32235000Y30595000D01*
X32235000Y30595000D02*
X32235000Y26555000D01*
D15*
X36830000Y42545000D03*
D16*
X39370000Y42545000D03*
X41910000Y42545000D03*
X44450000Y42545000D03*
X46990000Y42545000D03*
X49530000Y42545000D03*
X52070000Y42545000D03*
X54610000Y42545000D03*
X57150000Y42545000D03*
X59690000Y42545000D03*
X62230000Y42545000D03*
X64770000Y42545000D03*
X67310000Y42545000D03*
X36830000Y40005000D03*
X39370000Y40005000D03*
X41910000Y40005000D03*
X44450000Y40005000D03*
X46990000Y40005000D03*
X49530000Y40005000D03*
X52070000Y40005000D03*
X54610000Y40005000D03*
X57150000Y40005000D03*
X59690000Y40005000D03*
X62230000Y40005000D03*
X64770000Y40005000D03*
X67310000Y40005000D03*
X36830000Y37465000D03*
X39370000Y37465000D03*
X41910000Y37465000D03*
X44450000Y37465000D03*
X46990000Y37465000D03*
X49530000Y37465000D03*
X52070000Y37465000D03*
X54610000Y37465000D03*
X57150000Y37465000D03*
X59690000Y37465000D03*
X62230000Y37465000D03*
X64770000Y37465000D03*
X67310000Y37465000D03*
X36830000Y34925000D03*
X39370000Y34925000D03*
X41910000Y34925000D03*
X44450000Y34925000D03*
X46990000Y34925000D03*
X59690000Y34925000D03*
X62230000Y34925000D03*
X64770000Y34925000D03*
X67310000Y34925000D03*
X36830000Y32385000D03*
X39370000Y32385000D03*
X41910000Y32385000D03*
X62230000Y32385000D03*
X64770000Y32385000D03*
X67310000Y32385000D03*
X36830000Y29845000D03*
X39370000Y29845000D03*
X41910000Y29845000D03*
X44450000Y29845000D03*
X59690000Y29845000D03*
X62230000Y29845000D03*
X64770000Y29845000D03*
X67310000Y29845000D03*
X36830000Y27305000D03*
X39370000Y27305000D03*
X41910000Y27305000D03*
X62230000Y27305000D03*
X64770000Y27305000D03*
X67310000Y27305000D03*
X36830000Y24765000D03*
X39370000Y24765000D03*
X41910000Y24765000D03*
X62230000Y24765000D03*
X64770000Y24765000D03*
X67310000Y24765000D03*
X36830000Y22225000D03*
X39370000Y22225000D03*
X41910000Y22225000D03*
X62230000Y22225000D03*
X64770000Y22225000D03*
X67310000Y22225000D03*
X36830000Y19685000D03*
X39370000Y19685000D03*
X41910000Y19685000D03*
X44450000Y19685000D03*
X46990000Y19685000D03*
X59690000Y19685000D03*
X62230000Y19685000D03*
X64770000Y19685000D03*
X67310000Y19685000D03*
X36830000Y17145000D03*
X39370000Y17145000D03*
X41910000Y17145000D03*
X44450000Y17145000D03*
X46990000Y17145000D03*
X49530000Y17145000D03*
X52070000Y17145000D03*
X54610000Y17145000D03*
X57150000Y17145000D03*
X59690000Y17145000D03*
X62230000Y17145000D03*
X64770000Y17145000D03*
X67310000Y17145000D03*
X36830000Y14605000D03*
X39370000Y14605000D03*
X41910000Y14605000D03*
X44450000Y14605000D03*
X46990000Y14605000D03*
X49530000Y14605000D03*
X52070000Y14605000D03*
X54610000Y14605000D03*
X57150000Y14605000D03*
X59690000Y14605000D03*
X62230000Y14605000D03*
X64770000Y14605000D03*
X67310000Y14605000D03*
X36830000Y12065000D03*
X39370000Y12065000D03*
X41910000Y12065000D03*
X44450000Y12065000D03*
X46990000Y12065000D03*
X49530000Y12065000D03*
X52070000Y12065000D03*
X54610000Y12065000D03*
X57150000Y12065000D03*
X59690000Y12065000D03*
X62230000Y12065000D03*
X64770000Y12065000D03*
X67310000Y12065000D03*
M02*
