M48
; DRILL file {KiCad (6.0.10-0)} date 
; FORMAT={-:-/ absolute / metric / decimal}
; #@! TF.CreationDate,2022-12-27T17:00:47+09:00
; #@! TF.GenerationSoftware,Kicad,Pcbnew,(6.0.10-0)
; #@! TF.FileFunction,MixedPlating,1,2
FMAT,2
METRIC
; #@! TA.AperFunction,Plated,PTH,ViaDrill
T1C0.300
; #@! TA.AperFunction,Plated,PTH,ComponentDrill
T2C0.787
; #@! TA.AperFunction,Plated,PTH,ComponentDrill
T3C0.800
; #@! TA.AperFunction,Plated,PTH,ComponentDrill
T4C1.000
%
G90
G05
T1
X1.27Y56.515
X1.27Y38.735
X1.27Y21.59
X1.27Y1.27
X6.128Y24.257
X6.985Y53.975
X6.985Y46.355
X6.985Y38.735
X6.985Y29.845
X7.62Y9.525
X7.62Y5.715
X17.145Y53.975
X20.32Y46.355
X20.32Y38.735
X20.32Y29.845
X20.32Y22.225
X20.32Y17.78
X20.32Y12.065
X20.32Y9.525
X20.32Y5.715
X26.035Y39.37
X26.67Y1.27
X27.305Y46.355
X27.305Y42.545
X27.94Y22.225
X27.94Y17.78
X31.115Y14.605
X31.115Y12.065
X33.655Y22.225
X33.655Y17.78
X34.29Y42.545
X34.29Y40.005
X34.29Y38.189
X40.64Y56.515
X40.64Y44.45
X43.18Y13.335
X45.72Y23.495
X49.53Y32.385
X49.53Y23.495
X57.15Y56.515
X57.15Y44.45
X57.15Y32.385
X57.15Y23.495
X71.755Y56.515
X71.755Y42.545
X71.755Y9.525
T2
X36.83Y42.545
X36.83Y40.005
X36.83Y37.465
X36.83Y34.925
X36.83Y32.385
X36.83Y29.845
X36.83Y27.305
X36.83Y24.765
X36.83Y22.225
X36.83Y19.685
X36.83Y17.145
X36.83Y14.605
X36.83Y12.065
X39.37Y42.545
X39.37Y40.005
X39.37Y37.465
X39.37Y34.925
X39.37Y32.385
X39.37Y29.845
X39.37Y27.305
X39.37Y24.765
X39.37Y22.225
X39.37Y19.685
X39.37Y17.145
X39.37Y14.605
X39.37Y12.065
X41.91Y42.545
X41.91Y40.005
X41.91Y37.465
X41.91Y34.925
X41.91Y32.385
X41.91Y29.845
X41.91Y27.305
X41.91Y24.765
X41.91Y22.225
X41.91Y19.685
X41.91Y17.145
X41.91Y14.605
X41.91Y12.065
X44.45Y42.545
X44.45Y40.005
X44.45Y37.465
X44.45Y34.925
X44.45Y29.845
X44.45Y19.685
X44.45Y17.145
X44.45Y14.605
X44.45Y12.065
X46.99Y42.545
X46.99Y40.005
X46.99Y37.465
X46.99Y34.925
X46.99Y19.685
X46.99Y17.145
X46.99Y14.605
X46.99Y12.065
X49.53Y42.545
X49.53Y40.005
X49.53Y37.465
X49.53Y17.145
X49.53Y14.605
X49.53Y12.065
X52.07Y42.545
X52.07Y40.005
X52.07Y37.465
X52.07Y17.145
X52.07Y14.605
X52.07Y12.065
X54.61Y42.545
X54.61Y40.005
X54.61Y37.465
X54.61Y17.145
X54.61Y14.605
X54.61Y12.065
X57.15Y42.545
X57.15Y40.005
X57.15Y37.465
X57.15Y17.145
X57.15Y14.605
X57.15Y12.065
X59.69Y42.545
X59.69Y40.005
X59.69Y37.465
X59.69Y34.925
X59.69Y29.845
X59.69Y19.685
X59.69Y17.145
X59.69Y14.605
X59.69Y12.065
X62.23Y42.545
X62.23Y40.005
X62.23Y37.465
X62.23Y34.925
X62.23Y32.385
X62.23Y29.845
X62.23Y27.305
X62.23Y24.765
X62.23Y22.225
X62.23Y19.685
X62.23Y17.145
X62.23Y14.605
X62.23Y12.065
X64.77Y42.545
X64.77Y40.005
X64.77Y37.465
X64.77Y34.925
X64.77Y32.385
X64.77Y29.845
X64.77Y27.305
X64.77Y24.765
X64.77Y22.225
X64.77Y19.685
X64.77Y17.145
X64.77Y14.605
X64.77Y12.065
X67.31Y42.545
X67.31Y40.005
X67.31Y37.465
X67.31Y34.925
X67.31Y32.385
X67.31Y29.845
X67.31Y27.305
X67.31Y24.765
X67.31Y22.225
X67.31Y19.685
X67.31Y17.145
X67.31Y14.605
X67.31Y12.065
T3
X29.162Y34.925
X31.662Y34.925
X33.655Y29.825
X33.655Y27.325
X70.485Y29.845
X70.485Y27.345
T4
X3.81Y52.705
X3.81Y50.165
X3.81Y47.625
X3.81Y45.085
X3.81Y42.545
X3.81Y40.005
X3.81Y37.465
X3.81Y34.925
X3.81Y32.385
X3.81Y29.845
X3.81Y27.305
X3.81Y24.765
X3.81Y22.225
X3.81Y19.685
X3.81Y17.145
X3.81Y14.605
X3.81Y12.065
X3.81Y9.525
X3.81Y6.985
X3.81Y4.445
X24.13Y52.705
X24.13Y50.165
X24.13Y47.625
X24.13Y45.085
X24.13Y42.545
X24.13Y40.005
X24.13Y37.465
X24.13Y34.925
X24.13Y32.385
X24.13Y29.845
X24.13Y27.305
X24.13Y24.765
X24.13Y22.225
X24.13Y19.685
X24.13Y17.145
X24.13Y14.605
X24.13Y12.065
X24.13Y9.525
X24.13Y6.985
X24.13Y4.445
T0
M30
